<?xml version="1.0" encoding="UTF-8"?>
<svg width="255px" height="205px" viewBox="0 0 255 205" version="1.1" xmlns="http://www.w3.org/2000/svg" xmlns:xlink="http://www.w3.org/1999/xlink">
    <!-- Generator: Sketch 41 (35326) - http://www.bohemiancoding.com/sketch -->
    <title>Artboard</title>
    <desc>Created with Sketch.</desc>
    <defs>
        <ellipse id="path-1" cx="31.5" cy="31.5" rx="31.5" ry="31.5"></ellipse>
        <rect id="path-3" x="0" y="0" width="142" height="98.0102041" rx="4"></rect>
        <mask id="mask-4" maskContentUnits="userSpaceOnUse" maskUnits="objectBoundingBox" x="0" y="0" width="142" height="98.0102041" fill="white">
            <use xlink:href="#path-3"></use>
        </mask>
        <path d="M50.796748,95.7040816 L88.8943089,95.7040816 C88.8943089,95.7040816 76.7001966,113 88.8943089,113 L50.796748,113 C64.9993619,113 50.796748,95.7040816 50.796748,95.7040816 Z" id="path-5"></path>
        <mask id="mask-6" maskContentUnits="userSpaceOnUse" maskUnits="objectBoundingBox" x="0" y="0" width="38.097561" height="17.2959184" fill="white">
            <use xlink:href="#path-5"></use>
        </mask>
    </defs>
    <g id="1366" stroke="none" stroke-width="1" fill="none" fill-rule="evenodd">
        <g id="Artboard">
            <g id="Group-2">
                <g id="Group" transform="translate(129.500000, 108.000000) rotate(5.000000) translate(-129.500000, -108.000000) translate(8.000000, 11.000000)">
                    <path d="M220.329014,45.4020966 C220.329014,46.7460027 220.146868,49.4338148 220.146868,49.4338148 C220.146868,50.3515025 221.062958,51.0954354 221.968323,51.0954354 C222.873689,51.0954354 223.789778,50.3515025 223.789778,49.4338148 C223.789778,49.4338148 223.607632,46.8461276 223.607632,45.552284 C223.607632,44.2547993 223.789778,41.6598297 223.789778,41.6598297 C223.789778,40.742142 222.873689,39.9982092 221.968323,39.9982092 C221.062958,39.9982092 220.146868,40.742142 220.146868,41.6598297 C220.146868,41.6598297 220.329014,44.1546743 220.329014,45.4020966 Z" id="Shape" fill="#E0E0E0"></path>
                    <path d="M222.149994,43.786704 C220.824133,43.786704 218.172411,43.6020795 218.172411,43.6020795 C217.267046,43.6020795 216.533102,44.5306369 216.533102,45.4483245 C216.533102,46.3660122 217.267046,47.2945696 218.172411,47.2945696 C218.172411,47.2945696 220.725353,47.1099451 222.001823,47.1099451 C223.281886,47.1099451 225.842012,47.2945696 225.842012,47.2945696 C226.747378,47.2945696 227.481321,46.3660122 227.481321,45.4483245 C227.481321,44.5306369 226.747378,43.6020795 225.842012,43.6020795 C225.842012,43.6020795 223.380667,43.786704 222.149994,43.786704 L222.149994,43.786704 Z" id="Shape" fill="#E0E0E0"></path>
                    <path d="M215.308859,120.505 C215.308859,121.848906 215.126713,124.536719 215.126713,124.536719 C215.126713,125.454406 216.042802,126.198339 216.948168,126.198339 C217.853533,126.198339 218.769623,125.454406 218.769623,124.536719 C218.769623,124.536719 218.587477,121.949031 218.587477,120.655188 C218.587477,119.357703 218.769623,116.762733 218.769623,116.762733 C218.769623,115.845046 217.853533,115.101113 216.948168,115.101113 C216.042802,115.101113 215.126713,115.845046 215.126713,116.762733 C215.126713,116.762733 215.308859,119.257578 215.308859,120.505 Z" id="Shape" fill="#E0E0E0"></path>
                    <path d="M217.129839,118.889608 C215.803978,118.889608 213.152256,118.704983 213.152256,118.704983 C212.246891,118.704983 211.512947,119.633541 211.512947,120.551228 C211.512947,121.468916 212.246891,122.397473 213.152256,122.397473 C213.152256,122.397473 215.705197,122.212849 216.981668,122.212849 C218.261731,122.212849 220.821857,122.397473 220.821857,122.397473 C221.727222,122.397473 222.461166,121.468916 222.461166,120.551228 C222.461166,119.633541 221.727222,118.704983 220.821857,118.704983 C220.821857,118.704983 218.360511,118.889608 217.129839,118.889608 L217.129839,118.889608 Z" id="Shape" fill="#E0E0E0"></path>
                    <path d="M44.3463913,99.1142195 C44.3463913,100.189344 44.200675,102.339594 44.200675,102.339594 C44.200675,103.073744 44.9335464,103.668891 45.6578388,103.668891 C46.3821312,103.668891 47.1150026,103.073744 47.1150026,102.339594 C47.1150026,102.339594 46.9692862,100.269444 46.9692862,99.2343694 C46.9692862,98.1963816 47.1150026,96.120406 47.1150026,96.120406 C47.1150026,95.3862558 46.3821312,94.7911095 45.6578388,94.7911095 C44.9335464,94.7911095 44.200675,95.3862558 44.200675,96.120406 C44.200675,96.120406 44.3463913,98.1162816 44.3463913,99.1142195 Z" id="Shape" fill="#60B5F1"></path>
                    <path d="M42.8017977,97.9444961 C42.0775053,97.9444961 41.4903503,98.687342 41.4903503,99.4214921 C41.4903503,100.155642 42.0775053,100.898488 42.8017977,100.898488 C42.8017977,100.898488 44.8441507,100.750789 45.8653272,100.750789 C46.8893776,100.750789 48.9374782,100.898488 48.9374782,100.898488 C49.6617707,100.898488 50.2489257,100.155642 50.2489257,99.4214921 C50.2489257,98.687342 49.6617707,97.9444961 48.9374782,97.9444961 C48.9374782,97.9444961 46.968402,98.0921957 45.9838639,98.0921957 C44.9231752,98.0921957 42.8017977,97.9444961 42.8017977,97.9444961 Z" id="Shape" fill="#60B5F1"></path>
                    <path d="M28.6681112,24.8317364 C28.6681112,26.1756425 28.4859658,28.8634546 28.4859658,28.8634546 C28.4859658,29.7811423 29.402055,30.5250752 30.3074205,30.5250752 C31.212786,30.5250752 32.1288753,29.7811423 32.1288753,28.8634546 C32.1288753,28.8634546 31.9467298,26.2757674 31.9467298,24.9819238 C31.9467298,23.684439 32.1288753,21.0894695 32.1288753,21.0894695 C32.1288753,20.1717818 31.212786,19.4278489 30.3074205,19.4278489 C29.402055,19.4278489 28.4859658,20.1717818 28.4859658,21.0894695 C28.4859658,21.0894695 28.6681112,23.5843141 28.6681112,24.8317364 Z" id="Shape" fill="#E0E0E0"></path>
                    <path d="M30.6478815,23.0562604 C29.3220206,23.0562604 26.6702987,22.8716359 26.6702987,22.8716359 C25.7649332,22.8716359 25.0309895,23.8001933 25.0309895,24.717881 C25.0309895,25.6355687 25.7649332,26.564126 26.6702987,26.564126 C26.6702987,26.564126 29.22324,26.3795015 30.4997106,26.3795015 C31.7797736,26.3795015 34.3398994,26.564126 34.3398994,26.564126 C35.2452649,26.564126 35.9792087,25.6355687 35.9792087,24.717881 C35.9792087,23.8001933 35.2452649,22.8716359 34.3398994,22.8716359 C34.3398994,22.8716359 31.8785541,23.0562604 30.6478815,23.0562604 L30.6478815,23.0562604 Z" id="Shape" fill="#E0E0E0"></path>
                    <ellipse id="Oval-253" fill="#E0E0E0" cx="62.9256442" cy="59.3393776" rx="3.16204546" ry="3.15338654"></ellipse>
                    <ellipse id="Oval-253" fill="#60B5F1" cx="180.949152" cy="3.18281331" rx="3.16204546" ry="3.15338654"></ellipse>
                    <path d="M175.16142,39.9760603 C175.16142,40.7824039 175.052133,42.3950912 175.052133,42.3950912 C175.052133,42.9457038 175.601786,43.3920635 176.145006,43.3920635 C176.688225,43.3920635 177.237878,42.9457038 177.237878,42.3950912 C177.237878,42.3950912 177.128591,40.8424789 177.128591,40.0661727 C177.128591,39.2876819 177.237878,37.7307001 177.237878,37.7307001 C177.237878,37.1800875 176.688225,36.7337278 176.145006,36.7337278 C175.601786,36.7337278 175.052133,37.1800875 175.052133,37.7307001 C175.052133,37.7307001 175.16142,39.2276069 175.16142,39.9760603 Z" id="Shape" fill="#E0E0E0"></path>
                    <path d="M95.696965,26.2009123 C95.696965,27.007256 95.5876777,28.6199433 95.5876777,28.6199433 C95.5876777,29.1705559 96.1373313,29.6169156 96.6805506,29.6169156 C97.2237699,29.6169156 97.7734234,29.1705559 97.7734234,28.6199433 C97.7734234,28.6199433 97.6641362,27.067331 97.6641362,26.2910248 C97.6641362,25.5125339 97.7734234,23.9555522 97.7734234,23.9555522 C97.7734234,23.4049396 97.2237699,22.9585799 96.6805506,22.9585799 C96.1373313,22.9585799 95.5876777,23.4049396 95.5876777,23.9555522 C95.5876777,23.9555522 95.696965,25.452459 95.696965,26.2009123 Z" id="Shape-Copy" fill="#E0E0E0"></path>
                    <path d="M15.0808513,130.662451 C15.0808513,131.468794 14.971564,133.081482 14.971564,133.081482 C14.971564,133.632094 15.5212175,134.078454 16.0644368,134.078454 C16.6076561,134.078454 17.1573097,133.632094 17.1573097,133.081482 C17.1573097,133.081482 17.0480224,131.528869 17.0480224,130.752563 C17.0480224,129.974072 17.1573097,128.417091 17.1573097,128.417091 C17.1573097,127.866478 16.6076561,127.420118 16.0644368,127.420118 C15.5212175,127.420118 14.971564,127.866478 14.971564,128.417091 C14.971564,128.417091 15.0808513,129.913997 15.0808513,130.662451 Z" id="Shape" fill="#93DC87"></path>
                    <path d="M67.699484,190.224788 C67.699484,191.031132 67.5901967,192.643819 67.5901967,192.643819 C67.5901967,193.194432 68.1398502,193.640792 68.6830695,193.640792 C69.2262889,193.640792 69.7759424,193.194432 69.7759424,192.643819 C69.7759424,192.643819 69.6666551,191.091207 69.6666551,190.314901 C69.6666551,189.53641 69.7759424,187.979428 69.7759424,187.979428 C69.7759424,187.428816 69.2262889,186.982456 68.6830695,186.982456 C68.1398502,186.982456 67.5901967,187.428816 67.5901967,187.979428 C67.5901967,187.979428 67.699484,189.476335 67.699484,190.224788 Z" id="Shape-Copy-3" fill="#93DC87"></path>
                    <path d="M16.0383817,129.826751 C15.2428651,129.826751 13.651832,129.715976 13.651832,129.715976 C13.1086127,129.715976 12.6682464,130.273111 12.6682464,130.823723 C12.6682464,131.374336 13.1086127,131.93147 13.651832,131.93147 C13.651832,131.93147 15.1835968,131.820696 15.9494792,131.820696 C16.7175169,131.820696 18.2535924,131.93147 18.2535924,131.93147 C18.7968117,131.93147 19.237178,131.374336 19.237178,130.823723 C19.237178,130.273111 18.7968117,129.715976 18.2535924,129.715976 C18.2535924,129.715976 16.7767852,129.826751 16.0383817,129.826751 L16.0383817,129.826751 Z" id="Shape" fill="#93DC87"></path>
                    <path d="M68.6570144,189.389089 C67.8614978,189.389089 66.2704647,189.278314 66.2704647,189.278314 C65.7272454,189.278314 65.2868792,189.835448 65.2868792,190.386061 C65.2868792,190.936674 65.7272454,191.493808 66.2704647,191.493808 C66.2704647,191.493808 67.8022295,191.383033 68.5681119,191.383033 C69.3361496,191.383033 70.8722251,191.493808 70.8722251,191.493808 C71.4154444,191.493808 71.8558107,190.936674 71.8558107,190.386061 C71.8558107,189.835448 71.4154444,189.278314 70.8722251,189.278314 C70.8722251,189.278314 69.3954179,189.389089 68.6570144,189.389089 L68.6570144,189.389089 Z" id="Shape-Copy-4" fill="#93DC87"></path>
                    <path d="M176.11895,39.1403605 C175.323434,39.1403605 173.732401,39.0295858 173.732401,39.0295858 C173.189181,39.0295858 172.748815,39.5867202 172.748815,40.1373328 C172.748815,40.6879454 173.189181,41.2450799 173.732401,41.2450799 C173.732401,41.2450799 175.264165,41.1343052 176.030048,41.1343052 C176.798086,41.1343052 178.334161,41.2450799 178.334161,41.2450799 C178.87738,41.2450799 179.317747,40.6879454 179.317747,40.1373328 C179.317747,39.5867202 178.87738,39.0295858 178.334161,39.0295858 C178.334161,39.0295858 176.857354,39.1403605 176.11895,39.1403605 L176.11895,39.1403605 Z" id="Shape" fill="#E0E0E0"></path>
                    <path d="M96.6544954,25.3652126 C95.8589789,25.3652126 94.2679458,25.2544379 94.2679458,25.2544379 C93.7247264,25.2544379 93.2843602,25.8115723 93.2843602,26.3621849 C93.2843602,26.9127975 93.7247264,27.4699319 94.2679458,27.4699319 C94.2679458,27.4699319 95.7997105,27.3591572 96.5655929,27.3591572 C97.3336307,27.3591572 98.8697062,27.4699319 98.8697062,27.4699319 C99.4129255,27.4699319 99.8532917,26.9127975 99.8532917,26.3621849 C99.8532917,25.8115723 99.4129255,25.2544379 98.8697062,25.2544379 C98.8697062,25.2544379 97.392899,25.3652126 96.6544954,25.3652126 L96.6544954,25.3652126 Z" id="Shape-Copy-2" fill="#E0E0E0"></path>
                    <ellipse id="Oval-253" fill="#E0E0E0" cx="48.6129864" cy="153.021293" rx="3.16204546" ry="3.15338654"></ellipse>
                    <path d="M2.54089733,86.3746317 C2.54089733,87.2347316 2.42432423,88.9549314 2.42432423,88.9549314 C2.42432423,89.5422516 3.01062134,90.0183686 3.59005528,90.0183686 C4.16948921,90.0183686 4.75578632,89.5422516 4.75578632,88.9549314 C4.75578632,88.9549314 4.63921322,87.2988116 4.63921322,86.4707517 C4.63921322,85.6403615 4.75578632,83.9795809 4.75578632,83.9795809 C4.75578632,83.3922608 4.16948921,82.9161438 3.59005528,82.9161438 C3.01062134,82.9161438 2.42432423,83.3922608 2.42432423,83.9795809 C2.42432423,83.9795809 2.54089733,85.5762815 2.54089733,86.3746317 Z" id="Shape" fill="#E0E0E0"></path>
                    <path d="M3.76053121,85.2867224 C2.91198023,85.2867224 1.21487827,85.1685628 1.21487827,85.1685628 C0.635444337,85.1685628 0.165720326,85.7628395 0.165720326,86.3501596 C0.165720326,86.9374797 0.635444337,87.5317564 1.21487827,87.5317564 C1.21487827,87.5317564 2.84876068,87.4135967 3.66570189,87.4135967 C4.48494216,87.4135967 6.12342269,87.5317564 6.12342269,87.5317564 C6.70285662,87.5317564 7.17258064,86.9374797 7.17258064,86.3501596 C7.17258064,85.7628395 6.70285662,85.1685628 6.12342269,85.1685628 C6.12342269,85.1685628 4.54816171,85.2867224 3.76053121,85.2867224 L3.76053121,85.2867224 Z" id="Shape" fill="#E0E0E0"></path>
                    <ellipse id="Oval-253" fill="#60B5F1" cx="185.909018" cy="172.744876" rx="3.16204546" ry="3.15338654"></ellipse>
                    <ellipse id="Oval-253" fill="#93DC87" cx="239.72617" cy="75.9451165" rx="2.48446429" ry="2.47766085"></ellipse>
                </g>
                <g id="Shape" transform="translate(109.000000, 77.000000)">
                    <mask id="mask-2" fill="white">
                        <use xlink:href="#path-1"></use>
                    </mask>
                    <g id="Mask"></g>
                    <path d="M58.1885363,58.9000058 C55.7527325,52.5556538 51.6326141,51.0716945 48.3134907,50.4861382 C45.5444952,49.9951505 42.0929852,48.9763375 40.8709114,48.3116073 C40.8308617,47.7617891 40.8097243,46.646208 40.9204174,44.8235607 C40.9877232,44.7482356 41.0566978,44.6839069 41.1234474,44.6047331 L41.0889601,44.5733935 C42.7254375,42.4032611 43.5075202,40.3650851 43.8596243,38.9877905 C44.9170491,38.2510342 46.026761,36.8149091 46.6803507,34.0383273 C47.0580422,32.4284596 47.3411717,30.3957818 46.1724976,28.9398633 C46.1435728,28.9052247 46.1168729,28.8716858 46.0885044,28.8370473 C47.1353604,18.6395695 40.5221448,13.4872233 36.6378749,12.1462167 L36.5822503,12.1275229 L36.5282943,12.112128 C35.0648096,11.676672 33.6541682,11.4545455 32.343095,11.4545455 C32.0343782,11.4545455 31.7456862,11.4677411 31.4658942,11.489184 C31.1799834,11.4660916 30.8868415,11.4545455 30.5942558,11.4545455 C29.2798451,11.4545455 27.8708725,11.6761222 26.4068315,12.1115782 L26.3534318,12.1286225 L26.2994759,12.1456669 C22.4135373,13.4861236 15.8019904,18.6390196 16.8482902,28.8364975 C16.8176966,28.871136 16.7904406,28.9046749 16.764297,28.9393135 C15.5939542,30.395232 15.8787524,32.4284596 16.2564438,34.0377775 C16.9100336,36.8149091 18.0175205,38.2504844 19.0771703,38.9872407 C19.4259369,40.3535389 20.2057946,42.3647738 21.8116785,44.5167622 L21.8116785,44.5178618 C21.8139035,44.5200611 21.8289221,44.5393047 21.8305908,44.5426036 C21.9229278,44.6663127 21.9880086,44.783424 22.0853518,44.9065833 C22.1893699,46.6528058 22.1699013,47.7414458 22.1220641,48.3160058 C20.8933154,48.9752378 17.4518177,49.9957004 14.6856035,50.4850385 C11.3675926,51.0700451 7.24691792,52.5545542 4.81222662,58.8967069 C4.39893541,59.976 4.54634075,61.1454633 5.21661788,62.1054458 C7.71639003,65.6847622 20.8894216,66.4363636 31.4998252,66.4363636 C42.1102288,66.4363636 55.2849291,65.6847622 57.7835888,62.1065455 C58.4544222,61.1465629 58.6001588,59.9770996 58.1885363,58.9000058 L58.1885363,58.9000058 Z M21.3633437,37.0997149 C21.0373832,37.0997149 19.6578917,36.8874851 18.8485529,33.4406749 C18.2183255,30.7619607 18.8774777,30.3375011 19.3625248,30.3375011 C19.5861359,30.3375011 19.7724785,30.4282211 19.7724785,30.4282211 C17.3694932,18.0105775 27.175008,14.6313949 27.175008,14.6313949 C28.5244622,14.2300276 29.6569803,14.0859753 30.5936995,14.0859753 C30.9063101,14.0859753 31.1972271,14.1008204 31.4653379,14.1316102 C31.7373425,14.1008204 32.0288157,14.0859753 32.3425388,14.0859753 C33.2781455,14.0859753 34.4106636,14.2300276 35.7612303,14.6313949 C35.7612303,14.6313949 45.5650763,18.0105775 43.1620911,30.4282211 C43.1620911,30.4282211 43.3501024,30.3375011 43.5737136,30.3375011 C44.0587606,30.3375011 44.7179128,30.7614109 44.0854604,33.4406749 C43.2772341,36.8880349 41.8949614,37.0997149 41.5695571,37.0997149 C41.5256136,37.0997149 41.5005825,37.0958662 41.5005825,37.0958662 C41.5005825,37.0958662 41.3264774,40.3276975 38.3177396,43.8124451 C38.3177396,43.8393862 38.3138459,43.8696262 38.3138459,43.8960175 C35.9720477,46.2508887 33.5840812,47.3923113 31.1888834,47.3032407 C28.2107392,47.1806313 25.8578161,45.1726953 24.6885858,43.9559476 C24.6863608,43.9378036 24.6846921,43.9108625 24.6846921,43.8927185 C21.6142109,40.3766313 21.4323183,37.0958662 21.4323183,37.0958662 C21.4323183,37.0958662 21.4089559,37.0997149 21.3633437,37.0997149 L21.3633437,37.0997149 Z M31.4998252,63.8054836 C18.8908277,63.8054836 6.28349883,62.4793222 7.29976134,59.830848 C9.3328426,54.5355491 12.5668602,53.5315811 15.1539631,53.075232 C17.7405097,52.6188829 24.0222024,51.0650967 24.5745552,49.6042298 C24.743098,49.1649251 24.8042851,48.3467956 24.8159663,47.4264 C26.399044,48.6002618 28.5166748,49.7103447 31.0631716,49.8203084 C31.2027895,49.8280058 31.3429637,49.8318545 31.4825816,49.8318545 C33.7826612,49.8318545 36.0226662,48.9889833 38.1820154,47.359872 C38.1920279,48.3072087 38.253215,49.1544785 38.4256514,49.6042298 C38.977448,51.0645469 45.2591407,52.6183331 47.8467998,53.075232 C50.4333464,53.5315811 53.6684766,54.5355491 55.6993328,59.830848 C56.7161516,62.4793222 44.109379,63.8054836 31.4998252,63.8054836 L31.4998252,63.8054836 Z" fill="#4A90E2" mask="url(#mask-2)"></path>
                </g>
                <rect id="Rectangle-5" fill="#F6F6F6" x="74" y="147" width="142" height="21" rx="4"></rect>
                <path d="M124,164 L162,164 C162,164 149.837115,181 162,181 L124,181 C138.166244,181 124,164 124,164 Z" id="Rectangle-2" fill="#F6F6F6" transform="translate(143.000000, 172.500000) rotate(-180.000000) translate(-143.000000, -172.500000) "></path>
                <g id="Group" transform="translate(70.000000, 68.000000)" stroke="#DFDFDF">
                    <use id="Rectangle-5" mask="url(#mask-4)" stroke-width="4" xlink:href="#path-3"></use>
                    <path d="M1.14968145,80.7142857 L140.273067,80.7142857" id="Line" stroke-width="2" stroke-linecap="square"></path>
                    <use id="Rectangle-2" mask="url(#mask-6)" stroke-width="4" transform="translate(69.845528, 104.352041) rotate(-180.000000) translate(-69.845528, -104.352041) " xlink:href="#path-5"></use>
                </g>
            </g>
        </g>
    </g>
</svg>